<svg width="899" height="279" viewBox="0 0 899 279" fill="none" xmlns="http://www.w3.org/2000/svg">
<rect width="899" height="279" fill="white"/>
<path d="M157 92C153.128 92.8603 151.117 110.673 150.444 114.611C148.914 123.574 148.837 129.347 151 138" stroke="black" stroke-width="3" stroke-linecap="round"/>
<path d="M140 87C131.821 86.0912 131.494 72.8288 133 67.2222C138.146 48.0675 152.132 35.7327 171.556 31.4445C180.548 29.459 192.054 28.5895 198.833 36.1667C205.978 44.1514 203.206 55.8844 199.556 64.7778C194.779 76.4152 185.327 86.0213 176.167 94.3333C173.657 96.6104 171.17 98.9108 168.5 101C167.006 102.169 163.368 106.157 163.889 104.333C164.895 100.811 181.612 97.6767 184 97.1111C199.131 93.5275 215.794 93.2102 231.222 94.4445C256.476 96.4647 312.074 101.477 303 139C298.143 159.085 270.583 169.62 254.222 176.778C216.157 193.431 174.585 202.265 133.778 209.111C99.6373 214.839 63.6486 219.703 28.9444 217.389C20.4746 216.824 4 217.15 4 206" stroke="black" stroke-width="3" stroke-linecap="round"/>
<path d="M318 102C318 108.822 330.469 102.152 333.278 101.056C341.407 97.883 350.389 92.3753 351.778 83C353.252 73.0498 342.626 68.8538 334.889 72.7222C320.842 79.7459 314.128 100.874 317 115.556C319.791 129.822 333.147 127.586 342.389 121.5C355.605 112.797 360.489 95.6866 369.333 83.3333C371.039 80.9504 376.131 73.7572 379.611 74.1667C384.767 74.7732 387.05 80.396 387.944 84.7778C391.569 102.536 391.579 120.181 406 133" stroke="black" stroke-width="3" stroke-linecap="round"/>
<path d="M423 73C422.376 72.3762 420.595 69.8687 419.556 70.6111C416.594 72.7266 415.496 83.7636 415.167 86.9444C412.164 115.969 416.464 147.433 421 176C423.095 189.193 425.783 202.562 429.556 215.389C432.273 224.628 436.484 234.531 435.389 244.389C433.144 264.589 400.088 245.779 390.556 241.778C345.954 223.056 302.449 201.405 257.667 183.222C245.256 178.183 231.878 175.051 219.889 169C210.689 164.357 216.997 161.498 224.111 160C286.812 146.8 353.743 154.32 417.222 153.944C511.887 153.384 606.692 150.161 701 142" stroke="black" stroke-width="3" stroke-linecap="round"/>
<path d="M463 106C461.908 104.752 463.769 102.466 463.944 100.889C464.284 97.8342 464.022 92.7837 461.389 90.5556C456.418 86.3496 449.8 91.9684 446.5 95.5556C441.081 101.446 440.169 109.561 441.111 117.333C441.716 122.326 446.543 128.551 452 127.944C457.284 127.357 460.005 121.984 461.5 117.5C462.032 115.905 462.493 104.569 463.5 104.167C463.877 104.016 464.387 106.297 464.556 106.611C465.792 108.907 466.992 110.291 468.944 112C475.662 117.878 481.575 118.179 488.222 111.778C490.023 110.044 493.333 105.181 496.222 107C500.74 109.844 501.949 113.001 507.778 113.778C518.457 115.202 528.918 108.838 538.778 105.778C547.969 102.925 558.893 106.036 568 103" stroke="black" stroke-width="3" stroke-linecap="round"/>
<path d="M591 90C590.494 94.5504 585.937 102.969 592 106" stroke="black" stroke-width="3" stroke-linecap="round"/>
<path d="M606 103C606.865 103 607.866 100.879 609 100.222C611.977 98.4986 614.575 96.1216 618.222 96C633.85 95.4791 648.082 104.271 663 108" stroke="black" stroke-width="3" stroke-linecap="round"/>
<path d="M594 78H599" stroke="black" stroke-width="3" stroke-linecap="round"/>
<path d="M841.298 27.0159C839.053 23.9289 838.989 18.9297 837.298 15.4603C834.731 10.1908 829.044 6.39063 823.298 6.07142C785.444 3.96841 758.921 48.7749 747.465 78.5159C738.913 100.719 733.76 126.956 747.41 148.238C757.468 163.921 779.219 167.146 796.243 165.405C823.518 162.615 863.751 140.166 856.132 107.405C852.384 91.2884 831.872 83.2754 816.965 89.2381C814.943 90.0469 828.374 92.0159 829.854 92.0159C840.631 92.0159 850.974 91.4573 861.298 88.0159C870.639 84.9023 880.185 80.8912 888.187 75.0714C889.031 74.4577 891.741 72.5498 890.076 75.0159C886.333 80.562 883.371 86.3513 880.41 92.3492C864.283 125.006 851.509 159.305 837.632 192.96C827.017 218.703 815.765 244.855 809.298 272.016" stroke="black" stroke-width="3" stroke-linecap="round"/>
<path d="M891.014 116.879C889.516 117.045 889.354 118.069 889.354 119.368" stroke="black" stroke-width="3" stroke-linecap="round"/>
</svg>
